<mxfile host="app.diagrams.net" agent="Mozilla/5.0 (Windows NT 10.0; Win64; x64) AppleWebKit/537.36 (KHTML, like Gecko) Chrome/131.0.0.0 Safari/537.36" version="25.0.3">
  <diagram name="Page-1" id="Qm6gs3prU-dX3e5Cbw7b">
    <mxGraphModel dx="292" dy="526" grid="1" gridSize="10" guides="1" tooltips="1" connect="1" arrows="1" fold="1" page="1" pageScale="1" pageWidth="850" pageHeight="1100" math="0" shadow="0">
      <root>
        <mxCell id="0" />
        <mxCell id="1" parent="0" />
        <mxCell id="6VDEs-PdBko-V9u_IRLs-13" value="&lt;b&gt;rsrv&lt;/b&gt;&lt;div&gt;name:string,&lt;/div&gt;&lt;div&gt;created&lt;br&gt;&lt;span style=&quot;color: rgb(0, 0, 0); font-family: Helvetica; font-size: 12px; font-style: normal; font-variant-ligatures: normal; font-variant-caps: normal; font-weight: 400; letter-spacing: normal; orphans: 2; text-align: left; text-indent: 0px; text-transform: none; widows: 2; word-spacing: 0px; -webkit-text-stroke-width: 0px; white-space: normal; background-color: rgb(251, 251, 251); text-decoration-thickness: initial; text-decoration-style: initial; text-decoration-color: initial; display: inline !important; float: none;&quot;&gt;permission:{&lt;/span&gt;&lt;div style=&quot;forced-color-adjust: none; text-shadow: transparent 0px 0px 0px, rgba(0, 0, 0, 0.16) 0px 0px 0px !important; color: rgb(0, 0, 0); font-family: Helvetica; font-size: 12px; font-style: normal; font-variant-ligatures: normal; font-variant-caps: normal; font-weight: 400; letter-spacing: normal; orphans: 2; text-align: left; text-indent: 0px; text-transform: none; widows: 2; word-spacing: 0px; -webkit-text-stroke-width: 0px; white-space: normal; background-color: rgb(251, 251, 251); text-decoration-thickness: initial; text-decoration-style: initial; text-decoration-color: initial;&quot;&gt;&lt;span style=&quot;forced-color-adjust: none; text-shadow: transparent 0px 0px 0px, rgba(0, 0, 0, 0.16) 0px 0px 0px !important; white-space: pre;&quot;&gt;&lt;span style=&quot;white-space: pre;&quot;&gt;&amp;nbsp;&amp;nbsp;&amp;nbsp;&amp;nbsp;&lt;/span&gt;&lt;/span&gt;show:[],&lt;/div&gt;&lt;div style=&quot;forced-color-adjust: none; text-shadow: transparent 0px 0px 0px, rgba(0, 0, 0, 0.16) 0px 0px 0px !important; color: rgb(0, 0, 0); font-family: Helvetica; font-size: 12px; font-style: normal; font-variant-ligatures: normal; font-variant-caps: normal; font-weight: 400; letter-spacing: normal; orphans: 2; text-align: left; text-indent: 0px; text-transform: none; widows: 2; word-spacing: 0px; -webkit-text-stroke-width: 0px; white-space: normal; background-color: rgb(251, 251, 251); text-decoration-thickness: initial; text-decoration-style: initial; text-decoration-color: initial;&quot;&gt;&lt;span style=&quot;forced-color-adjust: none; text-shadow: transparent 0px 0px 0px, rgba(0, 0, 0, 0.16) 0px 0px 0px !important; white-space: pre;&quot;&gt;&lt;span style=&quot;white-space: pre;&quot;&gt;&amp;nbsp;&amp;nbsp;&amp;nbsp;&amp;nbsp;&lt;/span&gt;&lt;/span&gt;edit:[],&lt;/div&gt;&lt;div style=&quot;forced-color-adjust: none; text-shadow: transparent 0px 0px 0px, rgba(0, 0, 0, 0.16) 0px 0px 0px !important; color: rgb(0, 0, 0); font-family: Helvetica; font-size: 12px; font-style: normal; font-variant-ligatures: normal; font-variant-caps: normal; font-weight: 400; letter-spacing: normal; orphans: 2; text-align: left; text-indent: 0px; text-transform: none; widows: 2; word-spacing: 0px; -webkit-text-stroke-width: 0px; white-space: normal; background-color: rgb(251, 251, 251); text-decoration-thickness: initial; text-decoration-style: initial; text-decoration-color: initial;&quot;&gt;&lt;span style=&quot;forced-color-adjust: none; text-shadow: transparent 0px 0px 0px, rgba(0, 0, 0, 0.16) 0px 0px 0px !important; white-space: pre;&quot;&gt;&lt;span style=&quot;white-space: pre;&quot;&gt;&amp;nbsp;&amp;nbsp;&amp;nbsp;&amp;nbsp;&lt;/span&gt;&lt;/span&gt;delete:[]&lt;br style=&quot;forced-color-adjust: none; text-shadow: transparent 0px 0px 0px, rgba(0, 0, 0, 0.16) 0px 0px 0px !important;&quot;&gt;&lt;div style=&quot;forced-color-adjust: none; text-shadow: transparent 0px 0px 0px, rgba(0, 0, 0, 0.16) 0px 0px 0px !important;&quot;&gt;}&lt;/div&gt;&lt;div style=&quot;forced-color-adjust: none; text-shadow: transparent 0px 0px 0px, rgba(0, 0, 0, 0.16) 0px 0px 0px !important;&quot;&gt;type:&amp;nbsp;&lt;/div&gt;&lt;div style=&quot;forced-color-adjust: none; text-shadow: transparent 0px 0px 0px, rgba(0, 0, 0, 0.16) 0px 0px 0px !important;&quot;&gt;&lt;br&gt;&lt;/div&gt;&lt;/div&gt;&lt;div&gt;&lt;br&gt;&lt;/div&gt;&lt;/div&gt;" style="rounded=1;whiteSpace=wrap;html=1;align=left;" vertex="1" parent="1">
          <mxGeometry x="410" y="280" width="180" height="200" as="geometry" />
        </mxCell>
        <mxCell id="6VDEs-PdBko-V9u_IRLs-14" value="&lt;b&gt;Group&lt;/b&gt;&lt;div&gt;name:string,&lt;/div&gt;&lt;div&gt;&lt;span style=&quot;background-color: initial;&quot;&gt;admin:[],&lt;/span&gt;&lt;/div&gt;&lt;div&gt;member:[]&lt;/div&gt;" style="rounded=1;whiteSpace=wrap;html=1;align=left;" vertex="1" parent="1">
          <mxGeometry x="410" y="550" width="120" height="60" as="geometry" />
        </mxCell>
        <mxCell id="6VDEs-PdBko-V9u_IRLs-15" value="&lt;b&gt;User&lt;/b&gt;&lt;div&gt;name:string,&lt;/div&gt;&lt;div&gt;username:string,&lt;/div&gt;&lt;div&gt;email:string&lt;/div&gt;&lt;div&gt;password:string&lt;/div&gt;&lt;div&gt;joined: date,&lt;/div&gt;&lt;div&gt;avatar:&amp;nbsp;&lt;/div&gt;&lt;div&gt;&lt;br&gt;&lt;div&gt;&lt;br&gt;&lt;/div&gt;&lt;/div&gt;" style="rounded=1;whiteSpace=wrap;html=1;align=left;" vertex="1" parent="1">
          <mxGeometry x="240" y="190" width="120" height="230" as="geometry" />
        </mxCell>
        <mxCell id="6VDEs-PdBko-V9u_IRLs-16" value="&lt;b&gt;Schedule&lt;/b&gt;&lt;div&gt;rsrvid:?&lt;/div&gt;&lt;div&gt;userid:&lt;/div&gt;&lt;div&gt;start:&lt;/div&gt;&lt;div&gt;end:&lt;/div&gt;&lt;div&gt;name:&amp;nbsp;&lt;/div&gt;&lt;div&gt;remark:&lt;/div&gt;" style="rounded=1;whiteSpace=wrap;html=1;align=left;" vertex="1" parent="1">
          <mxGeometry x="240" y="550" width="120" height="120" as="geometry" />
        </mxCell>
      </root>
    </mxGraphModel>
  </diagram>
</mxfile>
